arm28_CheckCMCwithFD_states
version=1
nRows=11
nColumns=21
inDegrees=yes

# SIMM Motion File Header:
name arm28_CheckCMCwithFD_states
datacolumns 21
datarows 11
otherdata 1
range 6.69220127 6.75258503
endheader
time	r_shoulder_elev	r_elbow_flex	r_shoulder_elev_u	r_elbow_flex_u	TRIlong.activation	TRIlong.fiber_length	TRIlat.activation	TRIlat.fiber_length	TRImed.activation	TRImed.fiber_length	BIClong.activation	BIClong.fiber_length	BICshort.activation	BICshort.fiber_length	BRA.activation	BRA.fiber_length	DeltAnt.activation	DeltAnt.fiber_length	DeltPost.activation	DeltPost.fiber_length
      6.69220127	      1.39859637	      5.49417235	      1.55718067	    -24.65743603	      0.05000000	      0.13907873	      0.05000000	      0.07217519	      0.05000000	      0.06725172	      0.09721015	      0.14309692	      0.11146581	      0.14535173	      0.06961105	      0.08674878	      0.05000000	      0.16113541	      0.10728763	      0.10957797
      6.70222332	      1.41437524	      5.24368250	      1.59252359	    -25.33606845	      0.05000000	      0.13899668	      0.05000000	      0.07208310	      0.05000000	      0.06715997	      0.09720971	      0.14314410	      0.11146439	      0.14540328	      0.06961116	      0.08674566	      0.05000000	      0.16112600	      0.10728768	      0.10959141
      6.71224538	      1.43051065	      4.98626386	      1.62774643	    -26.03899436	      0.05000000	      0.13891264	      0.05000000	      0.07198879	      0.05000000	      0.06706602	      0.09722088	      0.14319194	      0.11148462	      0.14545555	      0.06961232	      0.08674205	      0.05000000	      0.16111637	      0.10728777	      0.10960515
      6.71475494	      1.43460708	      4.92069097	      1.63689518	    -26.21960373	      0.05000000	      0.13889128	      0.05000000	      0.07196482	      0.05000000	      0.06704214	      0.09722053	      0.14320403	      0.11148386	      0.14546875	      0.06961218	      0.08674107	      0.05000000	      0.16111393	      0.10728777	      0.10960863
      6.71570915	      1.43617067	      4.89563904	      1.63865175	    -26.28502297	      0.05000000	      0.13888312	      0.05000000	      0.07195566	      0.05000000	      0.06703302	      0.09722025	      0.14320864	      0.11148327	      0.14547379	      0.06961209	      0.08674069	      0.05000000	      0.16111299	      0.10728777	      0.10960996
      6.71666336	      1.43773199	      4.87053302	      1.63442323	    -26.33792275	      0.05000000	      0.13887495	      0.05000000	      0.07194649	      0.05000000	      0.06702388	      0.09721989	      0.14321326	      0.11148252	      0.14547884	      0.06961199	      0.08674030	      0.05000000	      0.16111199	      0.10728776	      0.10961130
      6.72143441	      1.44554657	      4.74409310	      1.64790789	    -26.67999198	      0.05000000	      0.13883379	      0.05000000	      0.07190033	      0.05000000	      0.06697790	      0.09721710	      0.14323644	      0.11147670	      0.14550418	      0.06961127	      0.08673830	      0.05000000	      0.16110721	      0.10728774	      0.10961799
      6.72620546	      1.45348268	      4.61588429	      1.67880377	    -27.06539571	      0.05000000	      0.13879215	      0.05000000	      0.07185366	      0.05000000	      0.06693141	      0.09721422	      0.14325979	      0.11147075	      0.14552972	      0.06961057	      0.08673618	      0.05000000	      0.16110248	      0.10728786	      0.10962474
      6.73437005	      1.46735510	      4.39227536	      1.71584596	    -27.70532523	      0.05000000	      0.13871977	      0.05000000	      0.07177248	      0.05000000	      0.06685054	      0.09721063	      0.14330014	      0.11146336	      0.14557387	      0.06960975	      0.08673226	      0.05000000	      0.16109422	      0.10728831	      0.10963649
      6.74253465	      1.48147076	      4.16349166	      1.74249771	    -28.34198625	      0.05000000	      0.13864592	      0.05000000	      0.07168965	      0.05000000	      0.06676803	      0.09721208	      0.14334096	      0.11146551	      0.14561857	      0.06961054	      0.08672794	      0.05000000	      0.16108580	      0.10728818	      0.10964850
      6.75258503	      1.49918485	      3.87451487	      1.78448150	    -29.17262647	      0.05000000	      0.13855298	      0.05000000	      0.07158544	      0.05000000	      0.06666422	      0.09722646	      0.14339180	      0.11149155	      0.14567422	      0.06961159	      0.08672205	      0.05000000	      0.16107523	      0.10728807	      0.10966357
